<svg width="663" height="565" viewBox="0 0 663 565" fill="none" xmlns="http://www.w3.org/2000/svg">
<g clip-path="url(#clip0_480_784)">
<path d="M403.502 473.213C298.643 473.213 213.334 387.782 213.334 282.773C213.334 177.765 298.644 92.3327 403.502 92.3327C414.596 92.3316 425.669 93.2931 436.597 95.2064C436.733 95.2318 436.862 95.2836 436.978 95.3591C437.093 95.4345 437.193 95.532 437.271 95.646C437.349 95.76 437.404 95.8882 437.432 96.0235C437.461 96.1587 437.462 96.2982 437.437 96.434C437.412 96.5698 437.36 96.6993 437.285 96.8151C437.209 96.9308 437.112 97.0306 436.998 97.1087C436.884 97.1868 436.756 97.2417 436.621 97.2702C436.486 97.2987 436.347 97.3004 436.211 97.275C425.41 95.3862 414.467 94.4374 403.502 94.4394C299.802 94.4394 215.435 178.926 215.435 282.775C215.435 386.625 299.802 471.111 403.502 471.111C507.203 471.111 591.57 386.625 591.57 282.775C591.616 235.837 574.114 190.581 542.509 155.918C542.412 155.817 542.337 155.697 542.287 155.566C542.237 155.434 542.214 155.295 542.218 155.154C542.223 155.014 542.256 154.876 542.315 154.749C542.374 154.621 542.457 154.507 542.561 154.412C542.664 154.318 542.786 154.245 542.918 154.198C543.05 154.151 543.19 154.131 543.33 154.139C543.47 154.148 543.607 154.184 543.733 154.246C543.859 154.308 543.971 154.394 544.063 154.5C576.021 189.551 593.719 235.312 593.672 282.775C593.672 387.782 508.362 473.213 403.502 473.213Z" fill="#090814"/>
<path d="M487.353 157.648C508.133 157.648 524.979 140.778 524.979 119.969C524.979 99.1593 508.133 82.2899 487.353 82.2899C466.573 82.2899 449.728 99.1593 449.728 119.969C449.728 140.778 466.573 157.648 487.353 157.648Z" fill="#09B285"/>
<path d="M482.221 139.579C481.572 139.579 480.931 139.427 480.349 139.136C479.768 138.845 479.263 138.422 478.873 137.902L468.608 124.196C467.942 123.306 467.657 122.188 467.814 121.088C467.971 119.987 468.558 118.994 469.447 118.327C470.335 117.66 471.452 117.374 472.551 117.531C473.65 117.689 474.641 118.277 475.307 119.167L482.023 128.133L499.271 102.224C499.886 101.299 500.844 100.657 501.932 100.439C503.021 100.221 504.151 100.445 505.075 101.062C505.998 101.678 506.64 102.637 506.857 103.727C507.075 104.817 506.851 105.949 506.236 106.874L485.706 137.712C485.335 138.27 484.836 138.731 484.25 139.056C483.664 139.381 483.009 139.56 482.34 139.579L482.221 139.579Z" fill="white"/>
<path d="M565.859 277.828C566.76 277.828 567.491 277.096 567.491 276.194C567.491 275.291 566.76 274.56 565.859 274.56C564.957 274.56 564.227 275.291 564.227 276.194C564.227 277.096 564.957 277.828 565.859 277.828Z" fill="white"/>
<path d="M302.083 55.5535L300.794 56.1284L285.143 20.9185C282.73 15.51 278.269 11.2843 272.741 9.17073C267.214 7.05719 261.072 7.229 255.668 9.64837L180.926 42.989C175.516 45.3938 171.279 49.8513 169.149 55.3809C167.018 60.9105 167.169 67.0592 169.567 72.4745L255.43 265.637C257.844 271.045 262.305 275.271 267.833 277.385C273.36 279.498 279.502 279.326 284.906 276.907L359.648 243.566C362.327 242.375 364.746 240.668 366.767 238.542C368.788 236.416 370.371 233.912 371.426 231.174C372.48 228.436 372.986 225.517 372.914 222.584C372.843 219.651 372.194 216.761 371.007 214.08L311.936 81.191L313.224 80.6163L302.083 55.5535Z" fill="#090814"/>
<path d="M258.862 14.5759L249.103 18.9291C250.04 19.8264 250.741 20.9413 251.144 22.175C251.547 23.4086 251.64 24.723 251.415 26.0017C251.188 27.2829 250.651 28.4892 249.85 29.5144C249.049 30.5397 248.01 31.3526 246.822 31.8818L203.988 50.9891C202.801 51.5193 201.502 51.7496 200.205 51.6598C198.909 51.5701 197.655 51.163 196.552 50.4744C195.453 49.7868 194.54 48.8383 193.894 47.7128C193.249 46.5873 192.89 45.3196 192.851 44.0219L183.736 48.0878C179.695 49.8834 176.53 53.2122 174.938 57.342C173.347 61.4718 173.458 66.0643 175.249 70.1092L260.988 262.991C262.791 267.031 266.124 270.186 270.252 271.764C274.381 273.342 278.968 273.213 283.005 271.406L358.127 237.895C362.169 236.099 365.334 232.771 366.925 228.641C368.517 224.511 368.405 219.919 366.615 215.874L280.876 22.9923C279.073 18.9533 275.741 15.7976 271.613 14.2193C267.485 12.6409 262.898 12.7692 258.862 14.5759Z" fill="white"/>
<path d="M246.618 88.3054C254.473 84.801 258.008 75.5866 254.514 67.7243C251.019 59.8621 241.818 56.3293 233.962 59.8337C226.106 63.338 222.571 72.5525 226.066 80.4147C229.561 88.277 238.762 91.8097 246.618 88.3054Z" fill="#D9D9D9"/>
<path d="M223.317 121.125L286.398 92.9911C286.86 92.7698 287.362 92.6434 287.874 92.6195C288.386 92.5955 288.898 92.6745 289.378 92.8516C289.859 93.0288 290.299 93.3006 290.673 93.6509C291.047 94.0013 291.347 94.4232 291.555 94.8916C291.764 95.3601 291.876 95.8656 291.886 96.3784C291.896 96.8912 291.803 97.4008 291.613 97.8772C291.422 98.3536 291.139 98.787 290.779 99.152C290.418 99.517 289.989 99.8061 289.515 100.002L226.434 128.136C225.51 128.519 224.474 128.525 223.546 128.155C222.617 127.784 221.871 127.065 221.464 126.152C221.058 125.238 221.024 124.201 221.37 123.262C221.716 122.323 222.415 121.557 223.317 121.125Z" fill="#E6E6E6"/>
<path d="M242.28 132.293L281.998 114.578C282.46 114.357 282.962 114.23 283.474 114.206C283.986 114.182 284.498 114.261 284.978 114.438C285.459 114.616 285.899 114.887 286.273 115.238C286.647 115.588 286.947 116.01 287.156 116.479C287.364 116.947 287.476 117.453 287.486 117.965C287.496 118.478 287.403 118.988 287.213 119.464C287.023 119.941 286.739 120.374 286.379 120.739C286.019 121.104 285.589 121.393 285.115 121.59L245.397 139.304C244.473 139.687 243.437 139.694 242.509 139.323C241.581 138.952 240.834 138.234 240.428 137.32C240.022 136.406 239.988 135.369 240.334 134.43C240.68 133.491 241.378 132.724 242.28 132.293Z" fill="#E6E6E6"/>
<path d="M237.881 153.879L300.962 125.745C301.425 125.524 301.927 125.397 302.439 125.373C302.951 125.349 303.462 125.428 303.943 125.606C304.423 125.783 304.864 126.054 305.238 126.405C305.612 126.755 305.912 127.177 306.12 127.646C306.328 128.114 306.44 128.62 306.45 129.132C306.46 129.645 306.367 130.155 306.177 130.631C305.987 131.107 305.703 131.541 305.343 131.906C304.983 132.271 304.553 132.56 304.08 132.756L240.998 160.89C240.074 161.273 239.038 161.279 238.11 160.909C237.182 160.538 236.435 159.819 236.029 158.905C235.623 157.992 235.589 156.955 235.935 156.016C236.281 155.077 236.979 154.31 237.881 153.879Z" fill="#E6E6E6"/>
<path d="M256.844 165.047L296.562 147.332C297.025 147.11 297.527 146.984 298.039 146.96C298.551 146.936 299.062 147.015 299.543 147.192C300.023 147.369 300.464 147.641 300.838 147.992C301.212 148.342 301.512 148.764 301.72 149.232C301.928 149.701 302.041 150.207 302.05 150.719C302.06 151.232 301.967 151.742 301.777 152.218C301.587 152.695 301.303 153.128 300.943 153.493C300.583 153.858 300.153 154.147 299.68 154.343L259.962 172.058C259.038 172.441 258.001 172.448 257.073 172.077C256.145 171.706 255.398 170.987 254.992 170.074C254.586 169.16 254.552 168.123 254.898 167.184C255.244 166.245 255.942 165.478 256.844 165.047Z" fill="#E6E6E6"/>
<path d="M264.127 181.424L303.845 163.709C304.307 163.488 304.809 163.361 305.321 163.337C305.833 163.314 306.344 163.392 306.825 163.57C307.306 163.747 307.746 164.019 308.12 164.369C308.494 164.719 308.794 165.141 309.002 165.61C309.211 166.078 309.323 166.584 309.333 167.097C309.343 167.609 309.25 168.119 309.059 168.596C308.869 169.072 308.586 169.505 308.225 169.87C307.865 170.235 307.436 170.525 306.962 170.721L267.244 188.435C266.32 188.818 265.284 188.825 264.356 188.454C263.427 188.083 262.681 187.365 262.274 186.451C261.868 185.537 261.834 184.5 262.18 183.561C262.526 182.622 263.225 181.856 264.127 181.424Z" fill="#E6E6E6"/>
<path d="M319.723 221.463L338.416 213.124C339.03 212.85 339.691 212.7 340.362 212.682C341.034 212.665 341.702 212.779 342.328 213.02C342.955 213.261 343.528 213.622 344.015 214.085C344.502 214.547 344.893 215.101 345.166 215.715C345.439 216.329 345.589 216.991 345.606 217.663C345.623 218.335 345.508 219.004 345.268 219.632C345.027 220.259 344.665 220.833 344.203 221.321C343.74 221.809 343.186 222.201 342.573 222.474L323.879 230.813C322.64 231.366 321.233 231.403 319.967 230.917C318.701 230.431 317.68 229.462 317.129 228.222C316.578 226.982 316.542 225.573 317.028 224.305C317.514 223.038 318.484 222.015 319.723 221.463Z" fill="black"/>
<path d="M549.717 559.411L378.294 496.898C369.838 493.802 365.386 484.683 368.345 476.51L455.551 236.451C458.528 228.283 467.789 224.165 476.252 227.241L647.675 289.755C656.133 292.848 660.584 301.968 657.625 310.142L570.418 550.201C567.442 558.367 558.181 562.488 549.717 559.411Z" fill="#090814"/>
<path d="M553.448 550.079L381.422 487.346C380.184 486.918 379.166 486.016 378.591 484.838C378.016 483.66 377.931 482.302 378.355 481.062L466.139 239.411C466.61 238.188 467.547 237.203 468.743 236.671C469.939 236.139 471.298 236.103 472.521 236.572L644.547 299.305C645.785 299.733 646.804 300.635 647.379 301.814C647.955 302.992 648.04 304.35 647.616 305.591L559.832 547.241C559.36 548.464 558.424 549.45 557.227 549.982C556.03 550.514 554.672 550.549 553.448 550.079Z" fill="white"/>
<path d="M559.243 264.021C559.963 264.283 560.752 263.932 561.004 263.237C561.257 262.542 560.878 261.766 560.158 261.504C559.438 261.241 558.65 261.592 558.397 262.287C558.145 262.982 558.524 263.758 559.243 264.021Z" fill="white"/>
<path d="M546.28 298.562C550.276 300.019 553.752 302.63 556.267 306.064C558.783 309.498 560.226 313.601 560.412 317.854C560.599 322.107 559.523 326.319 557.318 329.957C555.113 333.596 551.88 336.497 548.026 338.295C544.173 340.093 539.873 340.706 535.67 340.057C531.467 339.408 527.55 337.526 524.414 334.649C521.278 331.772 519.064 328.029 518.051 323.893C517.039 319.758 517.275 315.416 518.727 311.416C520.676 306.053 524.673 301.685 529.84 299.275C535.007 296.864 540.921 296.608 546.28 298.562Z" fill="#D9D9D9"/>
<path d="M485.934 354.45L558.658 380.964C559.729 381.355 560.602 382.155 561.084 383.189C561.567 384.223 561.619 385.406 561.229 386.478C560.84 387.55 560.041 388.423 559.008 388.904C557.975 389.386 556.793 389.437 555.721 389.046L482.997 362.532C482.466 362.339 481.979 362.042 481.563 361.661C481.146 361.279 480.809 360.819 480.57 360.307C480.332 359.795 480.196 359.241 480.171 358.677C480.146 358.112 480.232 357.549 480.425 357.018C480.618 356.487 480.913 356 481.295 355.584C481.676 355.168 482.135 354.831 482.647 354.592C483.158 354.354 483.712 354.218 484.276 354.194C484.84 354.17 485.403 354.257 485.934 354.45Z" fill="#E6E6E6"/>
<path d="M492.539 378.239L538.329 394.935C538.86 395.129 539.347 395.425 539.764 395.807C540.18 396.188 540.517 396.649 540.756 397.161C540.995 397.673 541.131 398.227 541.155 398.791C541.18 399.355 541.094 399.919 540.901 400.45C540.708 400.98 540.413 401.468 540.032 401.884C539.65 402.3 539.191 402.637 538.68 402.876C538.168 403.114 537.614 403.25 537.05 403.274C536.487 403.298 535.923 403.211 535.393 403.018L489.602 386.322C489.071 386.128 488.584 385.832 488.168 385.45C487.751 385.069 487.414 384.609 487.175 384.096C486.936 383.584 486.801 383.03 486.776 382.466C486.751 381.902 486.837 381.338 487.03 380.807C487.223 380.277 487.518 379.789 487.9 379.373C488.281 378.957 488.74 378.62 489.252 378.381C489.763 378.143 490.317 378.007 490.881 377.983C491.445 377.959 492.008 378.046 492.539 378.239Z" fill="#E6E6E6"/>
<path d="M472.209 392.211L544.934 418.725C546.005 419.116 546.878 419.916 547.36 420.95C547.843 421.984 547.895 423.167 547.505 424.239C547.116 425.31 546.317 426.183 545.284 426.665C544.251 427.146 543.068 427.197 541.997 426.807L469.273 400.293C468.742 400.099 468.255 399.803 467.839 399.421C467.422 399.039 467.085 398.579 466.846 398.067C466.607 397.555 466.472 397.001 466.447 396.437C466.422 395.873 466.508 395.309 466.701 394.779C466.894 394.248 467.189 393.761 467.571 393.344C467.952 392.928 468.411 392.591 468.923 392.353C469.434 392.114 469.988 391.979 470.552 391.955C471.116 391.93 471.679 392.017 472.209 392.211Z" fill="#E6E6E6"/>
<path d="M478.814 416L524.605 432.696C525.136 432.889 525.623 433.185 526.039 433.567C526.456 433.949 526.793 434.409 527.032 434.921C527.271 435.433 527.406 435.987 527.431 436.552C527.456 437.116 527.37 437.68 527.177 438.21C526.984 438.741 526.689 439.228 526.308 439.645C525.926 440.061 525.467 440.398 524.955 440.637C524.444 440.875 523.89 441.01 523.326 441.035C522.762 441.059 522.199 440.972 521.668 440.779L475.878 424.082C475.347 423.889 474.86 423.593 474.443 423.211C474.027 422.829 473.69 422.369 473.451 421.857C473.212 421.345 473.076 420.791 473.052 420.227C473.027 419.662 473.113 419.099 473.306 418.568C473.499 418.037 473.794 417.55 474.175 417.133C474.557 416.717 475.016 416.38 475.528 416.142C476.039 415.903 476.593 415.768 477.157 415.744C477.721 415.719 478.284 415.806 478.814 416Z" fill="#E6E6E6"/>
<path d="M471.952 434.88L517.743 451.576C518.274 451.77 518.761 452.066 519.177 452.447C519.594 452.829 519.931 453.289 520.17 453.801C520.409 454.313 520.544 454.868 520.569 455.432C520.594 455.996 520.508 456.56 520.315 457.091C520.122 457.621 519.827 458.109 519.445 458.525C519.064 458.941 518.605 459.278 518.093 459.517C517.582 459.755 517.028 459.891 516.464 459.915C515.9 459.939 515.337 459.852 514.806 459.659L469.016 442.963C468.485 442.769 467.998 442.473 467.581 442.091C467.165 441.709 466.828 441.249 466.589 440.737C466.35 440.225 466.214 439.671 466.19 439.107C466.165 438.543 466.251 437.979 466.444 437.448C466.637 436.917 466.932 436.43 467.313 436.014C467.695 435.597 468.154 435.26 468.665 435.022C469.177 434.783 469.731 434.648 470.295 434.624C470.858 434.599 471.422 434.686 471.952 434.88Z" fill="#E6E6E6"/>
<path d="M522.809 494.271L541.664 501.146C542.195 501.339 542.682 501.635 543.099 502.017C543.515 502.399 543.852 502.86 544.091 503.372C544.33 503.884 544.466 504.438 544.49 505.003C544.515 505.567 544.429 506.131 544.236 506.662C544.043 507.193 543.747 507.681 543.366 508.097C542.985 508.514 542.525 508.851 542.014 509.09C541.502 509.328 540.948 509.464 540.384 509.488C539.82 509.513 539.257 509.426 538.726 509.232L519.871 502.357C519.341 502.164 518.853 501.867 518.437 501.486C518.02 501.104 517.683 500.643 517.444 500.131C517.206 499.619 517.07 499.065 517.045 498.5C517.02 497.935 517.107 497.372 517.3 496.841C517.493 496.31 517.788 495.822 518.169 495.405C518.551 494.989 519.01 494.652 519.522 494.413C520.033 494.174 520.587 494.039 521.151 494.015C521.715 493.99 522.278 494.077 522.809 494.271Z" fill="black"/>
<path d="M69.3588 564.158C69.3588 564.624 69.6143 564.999 69.932 564.999H355.664C355.985 564.999 356.237 564.625 356.237 564.158C356.237 563.691 355.982 563.317 355.664 563.317H69.932C69.6143 563.318 69.3588 563.692 69.3588 564.158Z" fill="#CCCCCC"/>
<path d="M173.152 561.386H162.95V563.188H173.152V561.386Z" fill="#B6B3C5"/>
<path d="M263.466 561.686H253.264V563.489H263.466V561.686Z" fill="#B6B3C5"/>
<path d="M227.836 481.157C227.268 484.599 225.499 487.726 222.842 489.983C220.186 492.239 216.816 493.477 213.333 493.477C209.85 493.477 206.48 492.239 203.824 489.983C201.168 487.726 199.398 484.599 198.83 481.157H161.725V561.685H264.942V481.157H227.836Z" fill="#D6D6E3"/>
<path d="M265.241 555.306H162.025V558.109H265.241V555.306Z" fill="#090814"/>
<path d="M420.912 483.263H5.75429C4.22866 483.261 2.76599 482.653 1.68721 481.573C0.608427 480.493 0.00164528 479.028 0 477.5L0 240.232C0.00146248 238.704 0.608164 237.239 1.68697 236.159C2.76577 235.078 4.22854 234.471 5.75429 234.469H420.912C422.438 234.471 423.901 235.079 424.979 236.159C426.058 237.239 426.665 238.704 426.667 240.232V477.5C426.665 479.028 426.058 480.493 424.979 481.573C423.901 482.653 422.438 483.261 420.912 483.263Z" fill="#090814"/>
<path d="M415.93 243.542H9.66669V473.105H415.93V243.542Z" fill="white"/>
<path d="M88.5333 326.164C94.8623 326.164 101.049 328.044 106.312 331.565C111.574 335.086 115.676 340.091 118.098 345.947C120.52 351.802 121.153 358.245 119.919 364.462C118.684 370.678 115.636 376.388 111.161 380.87C106.686 385.351 100.984 388.403 94.7762 389.64C88.5688 390.876 82.1347 390.242 76.2874 387.816C70.4401 385.391 65.4424 381.283 61.9262 376.014C58.41 370.744 56.5332 364.548 56.5332 358.21C56.5332 349.711 59.9046 341.56 65.9058 335.55C71.907 329.54 80.0464 326.164 88.5333 326.164Z" fill="#D9D9D9"/>
<path d="M190.934 291.982H306.133C307.831 291.982 309.459 292.657 310.659 293.859C311.859 295.061 312.533 296.691 312.533 298.391C312.533 300.091 311.859 301.721 310.659 302.923C309.459 304.125 307.831 304.8 306.133 304.8H190.934C189.236 304.8 187.608 304.125 186.408 302.923C185.208 301.721 184.534 300.091 184.534 298.391C184.534 296.691 185.208 295.061 186.408 293.859C187.608 292.657 189.236 291.982 190.934 291.982Z" fill="#E6E6E6"/>
<path d="M212.266 321.891H284.8C286.497 321.891 288.125 322.567 289.325 323.769C290.526 324.971 291.2 326.601 291.2 328.301C291.2 330 290.526 331.631 289.325 332.832C288.125 334.034 286.497 334.71 284.8 334.71H212.266C210.569 334.71 208.941 334.034 207.741 332.832C206.541 331.631 205.866 330 205.866 328.301C205.866 326.601 206.541 324.971 207.741 323.769C208.941 322.567 210.569 321.891 212.266 321.891Z" fill="#E6E6E6"/>
<path d="M190.934 351.8H306.133C307.831 351.8 309.459 352.475 310.659 353.677C311.859 354.879 312.533 356.509 312.533 358.209C312.533 359.909 311.859 361.539 310.659 362.741C309.459 363.943 307.831 364.618 306.133 364.618H190.934C189.236 364.618 187.608 363.943 186.408 362.741C185.208 361.539 184.534 359.909 184.534 358.209C184.534 356.509 185.208 354.879 186.408 353.677C187.608 352.475 189.236 351.8 190.934 351.8Z" fill="#E6E6E6"/>
<path d="M212.266 381.709H284.8C286.497 381.709 288.125 382.385 289.325 383.587C290.526 384.789 291.2 386.419 291.2 388.119C291.2 389.818 290.526 391.449 289.325 392.651C288.125 393.852 286.497 394.528 284.8 394.528H212.266C210.569 394.528 208.941 393.852 207.741 392.651C206.541 391.449 205.866 389.818 205.866 388.119C205.866 386.419 206.541 384.789 207.741 383.587C208.941 382.385 210.569 381.709 212.266 381.709Z" fill="#E6E6E6"/>
<path d="M212.266 411.619H284.8C286.497 411.619 288.125 412.294 289.325 413.496C290.526 414.698 291.2 416.328 291.2 418.028C291.2 419.728 290.526 421.358 289.325 422.56C288.125 423.762 286.497 424.437 284.8 424.437H212.266C210.569 424.437 208.941 423.762 207.741 422.56C206.541 421.358 205.866 419.728 205.866 418.028C205.866 416.328 206.541 414.698 207.741 413.496C208.941 412.294 210.569 411.619 212.266 411.619Z" fill="#E6E6E6"/>
<path d="M332.267 445.267H362.133C363.831 445.267 365.459 445.942 366.659 447.144C367.859 448.346 368.533 449.976 368.533 451.676C368.533 453.376 367.859 455.006 366.659 456.208C365.459 457.41 363.831 458.085 362.133 458.085H332.267C330.569 458.085 328.941 457.41 327.741 456.208C326.541 455.006 325.867 453.376 325.867 451.676C325.867 449.976 326.541 448.346 327.741 447.144C328.941 445.942 330.569 445.267 332.267 445.267Z" fill="black"/>
</g>
<defs>
<clipPath id="clip0_480_784">
<rect width="663" height="565" fill="white"/>
</clipPath>
</defs>
</svg>
